<svg xmlns="http://www.w3.org/2000/svg" version="1.1" xmlns:xlink="http://www.w3.org/1999/xlink" xmlns:svgjs="http://svgjs.dev/svgjs" width="1500" height="1500" viewBox="0 0 1500 1500"><g transform="matrix(1,0,0,1,0,0)"><svg viewBox="0 0 280 280" data-background-color="#ffffff" preserveAspectRatio="xMidYMid meet" height="1500" width="1500" xmlns="http://www.w3.org/2000/svg" xmlns:xlink="http://www.w3.org/1999/xlink"><g id="tight-bounds" transform="matrix(1,0,0,1,0,0)"><svg viewBox="0 0 280 280" height="280" width="280"><g><svg viewBox="0 0 280 280" height="280" width="280"><g><svg viewBox="0 0 280 280" height="280" width="280"><g id="textblocktransform"><svg viewBox="0 0 280 280" height="280" width="280" id="textblock"><g><svg viewBox="0 0 280 280" height="280" width="280"><g transform="matrix(1,0,0,1,90.50252531694167,92.20933478877126)"><svg viewBox="0 0 98.99494936611666 95.58133042245747" height="95.58133042245747" width="98.99494936611666"><g id="icon-0"><svg xmlns="http://www.w3.org/2000/svg" xmlns:xlink="http://www.w3.org/1999/xlink" version="1.1" x="0" y="0" viewBox="5.500000000000001 6 29 28" enable-background="new 0 0 40 40" xml:space="preserve" height="95.58133042245747" width="98.99494936611666" class="icon-xg-0" data-fill-palette-color="accent" id="xg-0"><path fill-rule="evenodd" clip-rule="evenodd" d="M34.5 12v-2l-6-4L11.8 6l-6.3 4v2h1v19h-1v3h29v-3h-1V12H34.5zM23.5 12h3v4h-3V12zM18.5 12h3v4h-3V12zM8.5 12h3v4h-3V12zM16.5 29h-8V18h8V29zM16.5 16h-3v-4h3V16zM31.5 29h-13V18h13V29zM31.5 16h-3v-4h3V16z" fill="#2563eb" data-fill-palette-color="accent"></path></svg></g></svg></g><g id="text-0"><path d="M34.503 97.813v0c-0.829 2.292-1.861 4.085-3.095 5.38-1.235 1.295-2.545 2.145-3.932 2.549-1.386 0.404-2.692 0.413-3.917 0.025v0c-0.222-0.08-0.38-0.221-0.474-0.422-0.094-0.201-0.101-0.413-0.022-0.635v0l1.19-3.289c0.116-0.32 0.271-0.536 0.464-0.648 0.193-0.111 0.411-0.193 0.653-0.244v0c0.522 0.022 1.086-0.095 1.694-0.349 0.607-0.254 1.19-0.691 1.749-1.311 0.559-0.62 1.039-1.484 1.44-2.593v0c0.642-1.774 0.825-3.206 0.55-4.295-0.275-1.089-0.918-1.816-1.928-2.181v0c-0.715-0.259-1.372-0.232-1.973 0.081-0.601 0.312-1.256 0.89-1.965 1.734-0.709 0.844-1.551 1.996-2.525 3.455v0c-1.112 1.688-2.207 3.04-3.285 4.057-1.079 1.017-2.212 1.666-3.401 1.947-1.188 0.281-2.522 0.154-4-0.381v0c-1.429-0.517-2.558-1.364-3.386-2.542-0.828-1.177-1.302-2.603-1.421-4.276-0.119-1.673 0.182-3.508 0.904-5.504v0c0.579-1.602 1.308-2.941 2.185-4.017 0.877-1.076 1.814-1.894 2.81-2.452 0.996-0.559 1.973-0.909 2.93-1.051 0.957-0.142 1.822-0.086 2.594 0.165v0c0.197 0.071 0.351 0.204 0.463 0.397 0.111 0.193 0.122 0.413 0.033 0.66v0l-1.244 3.437c-0.071 0.197-0.192 0.376-0.362 0.538-0.17 0.161-0.413 0.255-0.728 0.28v0c-0.817-0.128-1.644 0.116-2.48 0.733-0.836 0.617-1.486 1.566-1.95 2.848v0c-0.481 1.331-0.623 2.492-0.424 3.483 0.199 0.991 0.816 1.674 1.85 2.049v0c0.69 0.25 1.336 0.254 1.94 0.012 0.603-0.242 1.24-0.75 1.91-1.525 0.67-0.775 1.47-1.83 2.399-3.166v0c1.226-1.925 2.388-3.442 3.485-4.549 1.097-1.108 2.232-1.798 3.403-2.071 1.172-0.273 2.484-0.146 3.938 0.379v0c1.626 0.588 2.854 1.527 3.684 2.817 0.829 1.289 1.267 2.834 1.313 4.634 0.046 1.8-0.311 3.747-1.069 5.841z" fill="#2563eb" data-fill-palette-color="primary"></path><path d="M53.405 64.521l-2.318 2.62c-0.174 0.196-0.39 0.302-0.649 0.318-0.259 0.016-0.487-0.063-0.683-0.237v0l-19.485-17.247c-0.196-0.174-0.302-0.39-0.318-0.649-0.016-0.259 0.063-0.487 0.237-0.682v0l2.319-2.62c0.191-0.216 0.412-0.327 0.662-0.333 0.25-0.006 0.473 0.078 0.67 0.252v0l6.71 5.94c-0.159-1.086-0.096-2.185 0.189-3.297 0.285-1.113 0.922-2.228 1.913-3.347v0c1.059-1.197 2.254-2.003 3.584-2.418 1.33-0.415 2.702-0.434 4.117-0.056 1.415 0.378 2.81 1.175 4.184 2.39v0l8.27 7.321c0.196 0.174 0.302 0.39 0.318 0.649 0.016 0.259-0.063 0.487-0.237 0.683v0l-2.344 2.649c-0.174 0.196-0.39 0.302-0.649 0.318-0.259 0.016-0.487-0.063-0.683-0.237v0l-8.094-7.165c-1.138-1.007-2.278-1.518-3.421-1.531-1.143-0.014-2.183 0.509-3.12 1.568v0c-0.903 1.02-1.305 2.126-1.205 3.317 0.1 1.191 0.72 2.291 1.858 3.298v0l8.094 7.165c0.196 0.174 0.307 0.385 0.331 0.634 0.024 0.249-0.059 0.482-0.25 0.697z" fill="#2563eb" data-fill-palette-color="primary"></path><path d="M91.344 35.7v0c-1.877 0.934-3.618 1.391-5.223 1.37-1.605-0.021-3.04-0.463-4.304-1.327-1.264-0.864-2.34-2.07-3.228-3.618v0c-0.234-0.411-0.502-0.921-0.806-1.531-0.304-0.61-0.549-1.132-0.735-1.566v0c-0.712-1.665-1.016-3.263-0.914-4.792 0.102-1.529 0.63-2.94 1.581-4.233 0.952-1.293 2.342-2.395 4.172-3.306v0c1.83-0.911 3.548-1.356 5.153-1.335 1.605 0.021 3.049 0.451 4.331 1.291 1.282 0.84 2.372 2.046 3.272 3.619v0c0.234 0.411 0.502 0.921 0.806 1.531 0.304 0.61 0.549 1.132 0.735 1.565v0c0.7 1.642 1.014 3.228 0.94 4.757-0.073 1.529-0.586 2.94-1.537 4.234-0.952 1.293-2.366 2.407-4.243 3.341zM89.611 32.216v0c1.243-0.619 2.01-1.49 2.299-2.615 0.289-1.124 0.09-2.467-0.599-4.027v0c-0.152-0.364-0.368-0.827-0.648-1.39-0.28-0.563-0.52-1.015-0.718-1.355v0c-0.829-1.49-1.78-2.458-2.852-2.905-1.071-0.447-2.229-0.362-3.472 0.257v0c-1.243 0.619-2.01 1.49-2.299 2.615-0.289 1.124-0.09 2.467 0.599 4.026v0c0.152 0.364 0.368 0.827 0.648 1.39 0.28 0.563 0.52 1.015 0.718 1.355v0c0.829 1.49 1.78 2.458 2.851 2.906 1.071 0.447 2.229 0.362 3.473-0.257z" fill="#2563eb" data-fill-palette-color="primary"></path><path d="M127.673 32.439l-3.327 0.298c-0.261 0.023-0.491-0.048-0.691-0.215-0.199-0.166-0.31-0.38-0.333-0.641v0l-2.315-25.918c-0.023-0.261 0.048-0.491 0.215-0.69 0.166-0.199 0.38-0.31 0.641-0.334v0l3.093-0.276c0.287-0.026 0.524 0.045 0.71 0.213 0.186 0.168 0.291 0.382 0.314 0.643v0l0.139 1.566c0.552-0.891 1.312-1.656 2.282-2.295 0.969-0.639 2.21-1.026 3.724-1.162v0c1.383-0.124 2.604-0.009 3.661 0.344 1.058 0.353 1.962 0.91 2.715 1.672 0.752 0.762 1.361 1.687 1.826 2.777 0.466 1.09 0.785 2.311 0.959 3.663v0c0.066 0.441 0.12 0.897 0.161 1.367 0.042 0.47 0.071 0.941 0.087 1.413v0c0.09 1.307 0.003 2.532-0.264 3.674-0.266 1.142-0.709 2.155-1.327 3.038-0.618 0.884-1.415 1.606-2.391 2.167-0.976 0.561-2.156 0.903-3.539 1.027v0c-1.409 0.126-2.633-0.021-3.67-0.442-1.037-0.42-1.906-1.02-2.608-1.799v0l0.794 8.887c0.023 0.261-0.042 0.49-0.195 0.688-0.153 0.198-0.374 0.31-0.661 0.335zM132.19 20.71v0c1.122-0.1 1.975-0.42 2.559-0.959 0.583-0.539 0.984-1.213 1.2-2.021 0.217-0.809 0.31-1.685 0.279-2.629v0c-0.044-0.785-0.114-1.568-0.21-2.349v0c-0.136-0.935-0.383-1.781-0.74-2.539-0.357-0.757-0.87-1.35-1.54-1.776-0.67-0.427-1.565-0.59-2.688-0.49v0c-1.07 0.096-1.916 0.421-2.537 0.976-0.621 0.555-1.048 1.231-1.279 2.028-0.231 0.797-0.337 1.602-0.317 2.416v0c0.016 0.472 0.047 0.969 0.094 1.491 0.047 0.522 0.105 1.03 0.175 1.524v0c0.096 0.781 0.346 1.515 0.75 2.202 0.403 0.687 0.952 1.237 1.646 1.649 0.694 0.412 1.564 0.571 2.608 0.477z" fill="#2563eb" data-fill-palette-color="primary"></path><path d="M170.23 27.939l-3.175-0.749c-0.255-0.06-0.451-0.201-0.587-0.421-0.136-0.221-0.175-0.458-0.115-0.713v0l5.974-25.327c0.06-0.255 0.201-0.451 0.421-0.587 0.221-0.136 0.458-0.175 0.713-0.114v0l3.176 0.748c0.255 0.06 0.451 0.201 0.587 0.422 0.136 0.221 0.175 0.458 0.114 0.713v0l-5.973 25.327c-0.06 0.255-0.201 0.451-0.421 0.587-0.221 0.136-0.458 0.175-0.714 0.114z" fill="#2563eb" data-fill-palette-color="primary"></path><path d="M198.187 39.887l-2.86-1.57c-0.23-0.126-0.381-0.314-0.454-0.562-0.073-0.249-0.046-0.488 0.081-0.718v0l8.927-16.264c0.126-0.23 0.314-0.381 0.563-0.454 0.249-0.073 0.488-0.046 0.718 0.081v0l2.86 1.57c0.253 0.139 0.41 0.329 0.471 0.572 0.061 0.243 0.029 0.479-0.098 0.709v0l-8.927 16.263c-0.126 0.23-0.308 0.384-0.546 0.463-0.238 0.079-0.483 0.049-0.735-0.09zM209.787 19.082l-3.136-1.721c-0.23-0.126-0.381-0.314-0.453-0.563-0.073-0.249-0.046-0.488 0.08-0.718v0l1.362-2.481c0.126-0.23 0.314-0.381 0.563-0.453 0.249-0.073 0.488-0.046 0.718 0.08v0l3.136 1.721c0.253 0.139 0.415 0.333 0.487 0.582 0.073 0.249 0.046 0.488-0.08 0.718v0l-1.362 2.481c-0.126 0.23-0.314 0.381-0.563 0.453-0.249 0.073-0.5 0.039-0.752-0.099z" fill="#2563eb" data-fill-palette-color="primary"></path><path d="M221.451 58.817l-2.342-2.546c-0.177-0.193-0.261-0.419-0.249-0.678 0.011-0.259 0.113-0.477 0.305-0.655v0l13.656-12.559c0.193-0.177 0.419-0.261 0.678-0.25 0.259 0.011 0.477 0.113 0.655 0.306v0l2.181 2.372c0.177 0.193 0.261 0.419 0.25 0.678-0.011 0.259-0.113 0.477-0.305 0.655v0l-1.186 1.091c1.078-0.066 2.184 0.101 3.317 0.5 1.133 0.4 2.232 1.178 3.296 2.336v0c1.082 1.177 1.757 2.443 2.025 3.798 0.268 1.356 0.137 2.713-0.393 4.073-0.53 1.359-1.47 2.66-2.82 3.902v0l-8.129 7.477c-0.193 0.177-0.419 0.261-0.678 0.25-0.259-0.011-0.477-0.113-0.655-0.306v0l-2.342-2.546c-0.177-0.193-0.261-0.419-0.25-0.678 0.011-0.259 0.113-0.477 0.306-0.655v0l7.956-7.317c1.119-1.029 1.743-2.111 1.874-3.246 0.131-1.135-0.283-2.223-1.24-3.265v0c-0.922-1.003-1.977-1.511-3.163-1.523-1.186-0.013-2.339 0.496-3.458 1.525v0l-7.956 7.317c-0.193 0.177-0.419 0.261-0.678 0.25-0.259-0.011-0.477-0.113-0.655-0.306z" fill="#2563eb" data-fill-palette-color="primary"></path><path d="M246.138 99.196v0c-1.029-2.721-1.06-5.174-0.094-7.36 0.966-2.186 2.872-3.888 5.718-5.104v0c0.236-0.117 0.544-0.248 0.924-0.392 0.38-0.144 0.685-0.245 0.915-0.303v0c1.9-0.606 3.659-0.788 5.277-0.546 1.619 0.242 3.04 0.889 4.264 1.938 1.224 1.05 2.174 2.47 2.85 4.259v0c0.751 1.985 0.971 3.807 0.659 5.466-0.311 1.659-1.066 3.107-2.265 4.345-1.199 1.238-2.754 2.218-4.666 2.941v0l-0.772 0.292c-0.245 0.093-0.486 0.086-0.723-0.021-0.236-0.107-0.406-0.295-0.507-0.564v0l-4.616-12.207c0 0-0.037 0.014-0.11 0.042-0.074 0.028-0.135 0.051-0.184 0.07v0c-0.849 0.349-1.577 0.813-2.184 1.393-0.607 0.58-1.018 1.253-1.232 2.02-0.214 0.767-0.164 1.568 0.152 2.402v0c0.26 0.686 0.582 1.223 0.966 1.609 0.384 0.387 0.767 0.676 1.148 0.869 0.381 0.192 0.68 0.317 0.898 0.375v0c0.378 0.109 0.622 0.22 0.734 0.331 0.112 0.112 0.219 0.302 0.322 0.572v0l1.195 3.162c0.093 0.245 0.096 0.475 0.009 0.69-0.087 0.215-0.245 0.352-0.475 0.411v0c-0.401 0.124-0.956 0.102-1.663-0.065-0.707-0.167-1.465-0.504-2.273-1.01-0.808-0.507-1.591-1.226-2.35-2.158-0.759-0.932-1.397-2.084-1.917-3.457zM256.3 90.731l-0.11 0.042 3.073 8.125 0.11-0.042c0.956-0.361 1.735-0.838 2.338-1.43 0.603-0.592 0.99-1.271 1.163-2.037 0.173-0.766 0.097-1.577-0.228-2.435v0c-0.324-0.858-0.805-1.517-1.441-1.977-0.636-0.46-1.374-0.706-2.212-0.739-0.839-0.033-1.736 0.131-2.693 0.493z" fill="#2563eb" data-fill-palette-color="primary"></path><path d="M14.392 186.532v0c-0.868-2.375-1.243-4.488-1.124-6.338 0.117-1.856 0.589-3.407 1.418-4.651 0.837-1.241 1.87-2.117 3.098-2.629v0c0.234-0.085 0.453-0.078 0.657 0.022 0.21 0.098 0.357 0.26 0.44 0.488v0l1.248 3.415c0.121 0.332 0.142 0.607 0.061 0.825-0.075 0.216-0.194 0.423-0.358 0.622v0c-0.424 0.329-0.793 0.799-1.107 1.409-0.316 0.604-0.49 1.34-0.521 2.21-0.027 0.861 0.17 1.867 0.59 3.017v0c0.67 1.834 1.476 3.094 2.419 3.783 0.946 0.68 1.942 0.828 2.988 0.445v0c0.738-0.27 1.243-0.73 1.514-1.38 0.265-0.648 0.398-1.544 0.399-2.688 0.009-1.14-0.088-2.615-0.289-4.425v0c-0.238-2.082-0.27-3.888-0.096-5.416 0.182-1.524 0.652-2.795 1.41-3.811 0.758-1.017 1.904-1.805 3.436-2.365v0c1.477-0.54 2.938-0.617 4.383-0.232 1.445 0.385 2.772 1.201 3.981 2.448 1.205 1.254 2.185 2.915 2.941 4.982v0c0.607 1.661 0.922 3.21 0.945 4.646 0.016 1.438-0.184 2.711-0.602 3.819-0.418 1.108-0.96 2.039-1.627 2.792-0.669 0.747-1.391 1.279-2.167 1.598v0c-0.209 0.076-0.423 0.074-0.641-0.007-0.218-0.081-0.374-0.25-0.469-0.508v0l-1.299-3.554c-0.076-0.209-0.1-0.434-0.069-0.675 0.03-0.241 0.16-0.477 0.39-0.708v0c0.738-0.444 1.233-1.187 1.488-2.228 0.252-1.048 0.135-2.236-0.351-3.565v0c-0.504-1.378-1.165-2.396-1.984-3.052-0.819-0.656-1.764-0.789-2.835-0.397v0c-0.714 0.261-1.23 0.69-1.548 1.288-0.315 0.589-0.484 1.415-0.507 2.476-0.015 1.066 0.055 2.439 0.208 4.12v0c0.306 2.344 0.39 4.321 0.255 5.933-0.13 1.61-0.57 2.915-1.321 3.915-0.751 1-1.876 1.774-3.378 2.323v0c-1.686 0.616-3.288 0.689-4.806 0.219-1.52-0.477-2.899-1.413-4.135-2.81-1.232-1.405-2.244-3.19-3.035-5.356z" fill="#2563eb" data-fill-palette-color="primary"></path><path d="M38.071 226.063l-2.413-2.706c-0.183-0.205-0.267-0.442-0.251-0.711 0.015-0.268 0.126-0.494 0.331-0.677v0l20.144-17.954c0.201-0.179 0.435-0.26 0.703-0.245 0.268 0.015 0.494 0.126 0.677 0.331v0l2.413 2.707c0.196 0.22 0.282 0.459 0.258 0.718-0.024 0.258-0.136 0.477-0.337 0.656v0l-6.94 6.185c1.139-0.032 2.264 0.167 3.376 0.598 1.112 0.43 2.182 1.223 3.211 2.377v0c1.103 1.237 1.787 2.567 2.054 3.988 0.266 1.421 0.117 2.839-0.446 4.254-0.563 1.406-1.557 2.743-2.98 4.012v0l-8.547 7.617c-0.205 0.183-0.442 0.267-0.71 0.252-0.268-0.015-0.492-0.123-0.671-0.324v0l-2.445-2.744c-0.179-0.201-0.26-0.435-0.245-0.703 0.015-0.268 0.126-0.494 0.331-0.677v0l8.363-7.454c1.179-1.05 1.846-2.163 2.002-3.337 0.151-1.179-0.261-2.316-1.238-3.412v0c-0.937-1.051-2.026-1.599-3.267-1.642-1.241-0.043-2.451 0.46-3.629 1.51v0l-8.363 7.454c-0.205 0.183-0.438 0.272-0.698 0.266-0.26-0.006-0.487-0.118-0.683-0.338z" fill="#2563eb" data-fill-palette-color="primary"></path><path d="M82.244 260.403v0c-1.951-0.962-3.422-2.111-4.414-3.447-0.992-1.336-1.529-2.795-1.611-4.377-0.085-1.59 0.234-3.237 0.957-4.941v0c0.194-0.452 0.447-0.996 0.76-1.63 0.31-0.629 0.585-1.158 0.826-1.587v0c0.922-1.634 2.049-2.89 3.38-3.767 1.322-0.875 2.817-1.328 4.484-1.361 1.664-0.027 3.448 0.429 5.352 1.367v0c1.904 0.939 3.352 2.076 4.343 3.412 0.989 1.342 1.539 2.804 1.651 4.386 0.114 1.59-0.196 3.249-0.93 4.975v0c-0.194 0.452-0.446 0.993-0.756 1.622-0.313 0.635-0.59 1.166-0.83 1.595v0c-0.911 1.611-2.023 2.866-3.337 3.768-1.305 0.898-2.789 1.36-4.452 1.387-1.664 0.027-3.471-0.44-5.423-1.402zM84.026 256.789v0c1.293 0.637 2.493 0.721 3.601 0.253 1.108-0.469 2.091-1.478 2.949-3.027v0c0.203-0.353 0.45-0.823 0.739-1.411 0.287-0.582 0.508-1.061 0.665-1.436v0c0.706-1.624 0.907-3.018 0.605-4.183-0.302-1.164-1.1-2.065-2.393-2.702v0c-1.293-0.637-2.493-0.721-3.601-0.253-1.114 0.466-2.097 1.475-2.949 3.027v0c-0.203 0.353-0.448 0.82-0.735 1.402-0.29 0.588-0.513 1.069-0.669 1.445v0c-0.712 1.621-0.913 3.016-0.605 4.183 0.302 1.164 1.1 2.065 2.393 2.702z" fill="#2563eb" data-fill-palette-color="primary"></path><path d="M124.878 279.995l-3.446-0.295c-0.274-0.023-0.498-0.138-0.671-0.344-0.173-0.205-0.248-0.442-0.226-0.709v0l2.304-26.896c0.023-0.268 0.137-0.488 0.342-0.661 0.205-0.173 0.445-0.248 0.72-0.224v0l3.201 0.274c0.3 0.026 0.53 0.141 0.691 0.345 0.16 0.204 0.229 0.44 0.206 0.708v0l-0.14 1.625c0.721-0.813 1.634-1.458 2.74-1.935 1.106-0.477 2.446-0.649 4.019-0.514v0c1.429 0.122 2.653 0.461 3.671 1.015 1.018 0.547 1.843 1.279 2.475 2.194 0.632 0.915 1.087 1.97 1.366 3.165 0.279 1.194 0.384 2.499 0.316 3.913v0c-0.014 0.466-0.041 0.94-0.083 1.423-0.042 0.49-0.097 0.978-0.165 1.465v0c-0.142 1.349-0.451 2.582-0.928 3.698-0.478 1.123-1.112 2.078-1.902 2.865-0.791 0.794-1.737 1.39-2.836 1.789-1.099 0.392-2.363 0.527-3.792 0.405v0c-1.462-0.125-2.686-0.493-3.673-1.104-0.986-0.617-1.765-1.387-2.337-2.31v0l-0.79 9.223c-0.023 0.268-0.131 0.489-0.323 0.662-0.192 0.174-0.439 0.248-0.739 0.223zM131.603 268.834v0c1.162 0.1 2.091-0.074 2.787-0.52 0.696-0.447 1.225-1.062 1.588-1.847 0.37-0.79 0.623-1.669 0.759-2.637v0c0.096-0.814 0.166-1.626 0.208-2.438v0c0.031-0.977-0.069-1.886-0.299-2.728-0.224-0.835-0.641-1.531-1.251-2.09-0.61-0.558-1.495-0.887-2.657-0.987v0c-1.11-0.095-2.032 0.086-2.769 0.542-0.736 0.456-1.292 1.07-1.666 1.84-0.382 0.776-0.635 1.58-0.759 2.411v0c-0.068 0.487-0.125 1.002-0.172 1.543-0.046 0.542-0.079 1.072-0.096 1.59v0c-0.043 0.812 0.08 1.605 0.368 2.378 0.289 0.774 0.748 1.435 1.379 1.983 0.637 0.548 1.497 0.868 2.58 0.96z" fill="#2563eb" data-fill-palette-color="primary"></path><path d="M175.376 268.757l-3.289 0.781c-0.268 0.064-0.516 0.025-0.744-0.116-0.229-0.141-0.375-0.345-0.439-0.613v0l-6.236-26.253c-0.062-0.261-0.023-0.506 0.118-0.735 0.141-0.229 0.345-0.375 0.613-0.439v0l3.289-0.781c0.261-0.062 0.506-0.023 0.735 0.118 0.229 0.141 0.374 0.342 0.436 0.603v0l6.237 26.254c0.064 0.268 0.025 0.516-0.116 0.745-0.141 0.229-0.342 0.374-0.604 0.436z" fill="#2563eb" data-fill-palette-color="primary"></path><path d="M208.075 254.971l-2.976 1.625c-0.236 0.129-0.483 0.155-0.74 0.079-0.258-0.076-0.453-0.234-0.585-0.475v0l-9.22-16.888c-0.129-0.236-0.155-0.483-0.08-0.74 0.076-0.258 0.231-0.451 0.468-0.58v0l2.975-1.625c0.259-0.141 0.511-0.171 0.758-0.089 0.246 0.082 0.434 0.241 0.562 0.477v0l9.221 16.888c0.132 0.241 0.166 0.488 0.101 0.739-0.064 0.252-0.226 0.448-0.484 0.589zM196.374 233.213l-3.252 1.775c-0.241 0.132-0.491 0.16-0.749 0.085-0.258-0.076-0.453-0.234-0.584-0.476v0l-1.403-2.57c-0.132-0.241-0.16-0.491-0.085-0.749 0.076-0.258 0.234-0.453 0.476-0.585v0l3.252-1.775c0.265-0.144 0.526-0.179 0.783-0.103 0.258 0.076 0.453 0.234 0.585 0.476v0l1.403 2.57c0.132 0.241 0.16 0.491 0.084 0.749-0.076 0.258-0.246 0.459-0.51 0.603z" fill="#2563eb" data-fill-palette-color="primary"></path><path d="M236.296 232.264l-2.439 2.63c-0.183 0.197-0.408 0.3-0.677 0.31-0.268 0.01-0.504-0.078-0.705-0.265v0l-14.108-13.084c-0.197-0.183-0.3-0.408-0.311-0.677-0.01-0.268 0.076-0.501 0.259-0.698v0l2.279-2.457c0.183-0.197 0.408-0.3 0.676-0.31 0.268-0.01 0.501 0.076 0.699 0.258v0l1.224 1.136c-0.153-1.107-0.071-2.264 0.245-3.472 0.321-1.203 1.036-2.403 2.145-3.599v0c1.127-1.215 2.381-2.018 3.762-2.408 1.376-0.386 2.791-0.36 4.244 0.076 1.449 0.432 2.872 1.296 4.27 2.593v0l8.394 7.785c0.202 0.187 0.308 0.415 0.318 0.683 0.01 0.268-0.078 0.504-0.266 0.705v0l-2.439 2.63c-0.183 0.197-0.41 0.303-0.683 0.318-0.268 0.01-0.504-0.078-0.705-0.266v0l-8.214-7.617c-1.158-1.074-2.328-1.632-3.512-1.676-1.184-0.043-2.275 0.473-3.273 1.549v0c-0.962 1.038-1.399 2.169-1.311 3.394 0.083 1.23 0.704 2.382 1.861 3.455v0l8.214 7.618c0.202 0.187 0.308 0.415 0.318 0.683 0.01 0.268-0.078 0.504-0.265 0.706z" fill="#2563eb" data-fill-palette-color="primary"></path><path d="M266.172 185.4v0c-1.077 2.815-2.742 4.738-4.996 5.769-2.26 1.029-4.909 1.033-7.947 0.011v0c-0.269-0.068-0.599-0.176-0.991-0.326-0.392-0.15-0.695-0.283-0.909-0.401v0c-1.896-0.838-3.387-1.909-4.472-3.215-1.088-1.3-1.743-2.778-1.965-4.435-0.228-1.659 0.012-3.415 0.721-5.268v0c0.787-2.056 1.872-3.619 3.256-4.689 1.384-1.07 2.969-1.673 4.754-1.811 1.783-0.132 3.662 0.181 5.639 0.937v0l0.808 0.309c0.251 0.096 0.431 0.267 0.541 0.512 0.11 0.245 0.11 0.509 0.002 0.79v0l-4.835 12.638c0 0 0.04 0.015 0.119 0.046 0.073 0.028 0.135 0.051 0.184 0.07v0c0.903 0.317 1.788 0.46 2.656 0.427 0.868-0.033 1.65-0.27 2.346-0.712 0.698-0.449 1.212-1.104 1.541-1.967v0c0.272-0.71 0.39-1.348 0.355-1.916-0.029-0.565-0.123-1.054-0.282-1.465-0.167-0.407-0.314-0.709-0.442-0.906v0c-0.219-0.343-0.333-0.597-0.34-0.761-0.013-0.166 0.034-0.39 0.141-0.672v0l1.25-3.268c0.098-0.257 0.256-0.439 0.472-0.545 0.216-0.107 0.433-0.104 0.65 0.007v0c0.401 0.181 0.815 0.582 1.244 1.202 0.438 0.616 0.794 1.398 1.07 2.345 0.274 0.953 0.383 2.051 0.329 3.293-0.057 1.248-0.356 2.582-0.899 4.001zM252.465 184.954l0.119 0.045 3.22-8.416-0.119-0.045c-0.991-0.379-1.923-0.546-2.796-0.502-0.873 0.045-1.642 0.305-2.308 0.779-0.66 0.477-1.159 1.159-1.499 2.047v0c-0.339 0.887-0.423 1.729-0.25 2.524 0.179 0.798 0.582 1.496 1.209 2.093 0.625 0.604 1.433 1.095 2.424 1.475z" fill="#2563eb" data-fill-palette-color="primary"></path><path d="M5.28 138.265c0-6.021 4.881-10.901 10.901-10.902 6.021 0 10.901 4.881 10.901 10.902 0 6.021-4.881 10.901-10.901 10.901-6.021 0-10.901-4.881-10.901-10.901z" fill="#2563eb" data-fill-palette-color="primary"></path><path d="M252.918 138.265c0-6.021 4.881-10.901 10.901-10.902 6.021 0 10.901 4.881 10.901 10.902 0 6.021-4.881 10.901-10.901 10.901-6.021 0-10.901-4.881-10.901-10.901z" fill="#2563eb" data-fill-palette-color="primary"></path></g><g id="text-1"></g></svg></g></svg></g></svg></g></svg></g><defs></defs></svg><rect width="280" height="280" fill="none" stroke="none" visibility="hidden"></rect></g></svg></g></svg>